<?xml version="1.0" encoding="UTF-8"?>
<svg width="448px" height="213px" viewBox="0 0 448 213" version="1.1" xmlns="http://www.w3.org/2000/svg" xmlns:xlink="http://www.w3.org/1999/xlink">
    <!-- Generator: sketchtool 52.2 (67145) - http://www.bohemiancoding.com/sketch -->
    <title>DA358B10-5743-4177-A498-4635955F50B7</title>
    <desc>Created with sketchtool.</desc>
    <g id="Page-1" stroke="none" stroke-width="1" fill="none" fill-rule="evenodd">
        <g id="Desktop-HD-Copy-2" transform="translate(-496.000000, -222.000000)">
            <g id="Group-3" opacity="0.054780506" transform="translate(496.000000, 222.000000)">
                <g id="chevir-11">
                    <path d="M342.334727,1.96372093 L157.748517,1.96372093 C155.071977,1.94815395 152.501457,3.01603982 150.614509,4.92744186 C147.617625,7.79117714 146.683637,12.218485 148.265647,16.0615693 C149.847656,19.9046537 153.618368,22.3684359 157.748517,22.2576744 L195.014976,22.2576744 C200.265947,22.2514766 205.002608,25.4336281 207.0129,30.3180385 C209.023193,35.202449 207.910476,40.8254008 204.194399,44.5609302 C201.779782,47.0468197 198.468293,48.4421723 195.014976,48.4288372 L107.062141,48.4288372 C101.551647,48.4288372 97.0845084,52.9268137 97.0845084,58.4753488 C97.0845084,64.023884 101.551647,68.5218605 107.062141,68.5218605 L144.977147,68.5218605 C150.724416,68.5431365 155.893748,72.046291 158.077092,77.3994339 C160.260436,82.7525769 159.028349,88.9027996 154.95478,92.9851163 C152.327085,95.6844078 148.730997,97.2051911 144.977147,97.2046512 L10.2791014,97.2046512 C9.76488565,97.1526138 9.24678409,97.1526138 8.73256832,97.2046512 C6.61904946,97.5159412 4.66052986,98.5019612 3.14509384,100.017674 C1.24679633,101.917648 0.186231858,104.505914 0.201692113,107.20093 C0.14897659,112.227028 3.79336624,116.518897 8.73256832,117.247442 C9.24678409,117.299479 9.76488565,117.299479 10.2791014,117.247442 L164.932413,117.247442 C169.767553,116.945654 174.369342,119.371653 176.877607,123.54478 C179.385872,127.717908 179.385872,132.948139 176.877607,137.121266 C174.369342,141.294394 169.767553,143.720392 164.932413,143.418605 L113.298162,143.418605 C110.621622,143.403038 108.051102,144.470924 106.164154,146.382326 C104.265857,148.282299 103.205292,150.870565 103.220753,153.565581 C103.220753,159.114117 107.687891,163.612093 113.198386,163.612093 L220.108723,163.612093 C227.969241,163.639767 234.326898,170.063775 234.32685,177.978605 C234.272474,185.862477 227.938544,192.240133 220.108723,192.294884 L42.207527,192.294884 C36.6970324,192.294884 32.229894,196.79286 32.229894,202.341395 C32.229894,207.889931 36.6970324,212.387907 42.207527,212.387907 L342.334727,212.387907 C400.19492,212.387907 447.099874,165.159154 447.099874,106.899535 C447.099874,48.6399157 399.614378,1.96372093 341.754186,1.96372093 L342.334727,1.96372093 Z M349.31907,190.637209 C346.569036,190.639637 343.820979,190.488709 341.087523,190.185116 L337.196246,189.733023 C297.641726,182.606481 268.845288,147.962473 268.845288,107.502326 C268.845288,67.0421786 297.641726,32.3981699 337.196246,25.2716279 L341.087523,24.8195349 C343.820979,24.5159427 346.569036,24.3650139 349.31907,24.3674419 C378.816673,24.3674406 406.073583,40.2128597 420.822385,65.9348827 C435.571187,91.6569058 435.571187,123.347745 420.822385,149.069768 C406.073583,174.791792 378.816673,190.637211 349.31907,190.637209 Z" id="Shape" fill="#0051E6" fill-rule="nonzero"></path>
                    <rect id="Rectangle" fill="#0051E6" x="41.608869" y="48.3283721" width="33.9738403" height="20.2939535" rx="10.0774093"></rect>
                    <rect id="Rectangle" fill="#0051E6" x="102.771759" y="0.506976744" width="22.2002334" height="20.2939535" rx="10.0774093"></rect>
                    <rect id="Rectangle" fill="#0051E6" x="59.0198386" y="144.875349" width="22.2002334" height="20.2939535" rx="10.0774093"></rect>
                    <path d="M417.216863,111.52093 C417.216863,110.164651 417.216863,108.858605 417.216863,107.502326 C417.216863,106.146047 417.216863,105.593488 417.216863,104.63907 C417.216863,103.684651 417.216863,102.227907 417.216863,101.022326 C417.216863,99.8167442 416.867646,97.907907 416.668093,96.4009302 C416.46854,94.8939535 416.119323,93.2362791 415.770106,91.7293023 C415.770106,91.1767442 415.770106,90.5739535 415.470777,90.0716279 L393.021103,91.427907 L385.587766,78.5181395 L398.009919,59.7813953 C393.890194,55.6051582 389.244225,51.9910754 384.190898,49.0316279 C381.884069,47.6567866 379.483431,46.4481815 377.007002,45.4148837 L375.460469,44.7618605 C374.565544,44.3747779 373.649443,44.0393506 372.71662,43.7572093 L371.918409,43.455814 C370.888547,43.0949258 369.839216,42.7930472 368.775455,42.5516279 L367.977244,42.5516279 L357.999611,62.6446512 L343.033162,62.6446512 L333.055529,42.8027907 L333.055529,42.5013953 C321.705852,45.5305995 311.369735,51.5669325 303.12263,59.9823256 L303.521735,60.6353488 L315.494894,78.7190698 L308.061558,91.6288372 L286.859088,90.3227907 L285.661772,90.3227907 C282.667622,101.747714 282.667622,113.759262 285.661772,125.184186 L287.108529,125.184186 L308.061558,123.978605 L315.494894,136.787907 L303.870952,154.369302 L303.12263,155.574884 C311.386043,163.958368 321.717712,169.974765 333.055529,173.005581 L333.604298,171.900465 L343.033162,152.862326 L357.999611,152.862326 L367.478362,172.20186 L367.927356,173.005581 C379.267027,169.979284 389.599807,163.96224 397.860255,155.574884 L397.511038,155.072558 L385.438102,136.787907 L392.871438,123.978605 L415.021784,125.284651 L415.371001,125.284651 C416.434515,120.937719 417.069507,116.495739 417.266751,112.023256 L417.216863,111.52093 Z M350.366722,127.243721 C342.407594,127.264036 335.221881,122.449422 332.166727,115.049254 C329.111574,107.649086 330.790079,99.1241854 336.41805,93.4573623 C342.046022,87.7905392 350.512476,86.1004466 357.861908,89.1766908 C365.211341,92.252935 369.992946,99.4882533 369.972771,107.502326 C369.972771,112.738069 367.907139,117.75937 364.230292,121.4616 C360.553444,125.16383 355.566569,127.243721 350.366722,127.243721 Z" id="Shape" fill="#0051E6" fill-rule="nonzero"></path>
                    <path d="M415.271224,90.0716279 C411.502668,75.725486 403.094418,63.0525551 391.374793,54.0548837 C389.086737,52.2309907 386.687402,50.5532834 384.190898,49.0316279 C381.889416,47.6469341 379.488051,46.4379632 377.007002,45.4148837 L375.460469,44.7618605 C374.565544,44.3747779 373.649443,44.0393506 372.71662,43.7572093 L371.918409,43.455814 C370.888547,43.0949258 369.839216,42.7930472 368.775455,42.5516279 L367.977244,42.5516279 C362.486645,41.1174045 356.837284,40.39159 351.164932,40.3916279 C345.111168,40.3818163 339.084801,41.2100348 333.255081,42.8530233 C310.525542,49.3059934 292.879202,67.3798403 286.859088,90.3730233 C285.390633,95.8768317 284.652524,101.552215 284.664009,107.251163 C284.66118,113.280212 285.483762,119.280877 287.108529,125.083721 C295.880143,157.43443 327.095612,178.237615 360.097675,173.726483 C393.099737,169.215351 417.677408,140.785668 417.56608,107.251163 C417.519593,101.450414 416.748589,95.6785913 415.271224,90.0716279 Z" id="Path" stroke="#0051E6" stroke-width="2.49440825"></path>
                    <ellipse id="Oval" stroke="#0051E6" stroke-width="2.49440825" cx="350.366722" cy="107.502326" rx="11.1749489" ry="11.252093"></ellipse>
                </g>
            </g>
            <text id="ABOUT-US" fill="#4A4A4A" font-family="VisbyCF-ExtraBold, Visby CF" font-size="65" font-weight="600" line-spacing="35">
                <tspan x="604" y="386">ABOUT US</tspan>
            </text>
        </g>
    </g>
</svg>