<?xml version="1.0" encoding="UTF-8"?>
<svg width="12px" height="12px" viewBox="0 0 12 12" version="1.1" xmlns="http://www.w3.org/2000/svg" xmlns:xlink="http://www.w3.org/1999/xlink">
    <!-- Generator: sketchtool 52.2 (67145) - http://www.bohemiancoding.com/sketch -->
    <title>F201CB6F-D32C-4026-B651-A0171D231FF9</title>
    <desc>Created with sketchtool.</desc>
    <g id="Page-1" stroke="none" stroke-width="1" fill="none" fill-rule="evenodd">
        <g id="Desktop-HD-Copy-7" transform="translate(-1313.000000, -24.000000)">
            <rect id="Rectangle-Copy-3" fill="#FFFFFF" x="0" y="0" width="1440" height="58"></rect>
            <g id="worlwide-(1)" transform="translate(1313.000000, 24.000000)" fill="#1345D5" fill-rule="nonzero">
                <path d="M10.242663,1.75967094 C9.12858935,0.646197837 7.65349936,0.0249844726 6.08125506,0.00421876648 C6.05386518,0.00173438177 6.02668636,0 6,0 C5.97331364,0 5.94613482,0.00173438177 5.91874494,0.00421876648 C4.34650064,0.024961035 2.87141065,0.646174399 1.75733699,1.7596475 C0.624104494,2.89231599 0,4.39822812 0,6 C0,7.60177188 0.624104494,9.10770745 1.75736044,10.2403525 C2.8714341,11.3538256 4.34650064,11.975039 5.91876839,11.9957812 C5.94615827,11.9982891 5.97333709,12 6,12 C6.02668636,12 6.05386518,11.9982656 6.08125506,11.9957812 C7.65352281,11.975039 9.1286128,11.3538256 10.242663,10.2403525 C11.3758955,9.10773089 12,7.60181876 12,6 C12.0000235,4.39822812 11.375919,2.89231599 10.242663,1.75967094 Z M2.26172805,2.26376666 C2.89912882,1.62670948 3.67075873,1.17269989 4.51276279,0.92740206 C4.32298006,1.1457701 4.13849707,1.39692733 3.96679447,1.67524873 C3.74779275,2.03023449 3.55817416,2.414986 3.39939264,2.82179227 L1.77581577,2.82179227 C1.92355224,2.62648682 2.08549955,2.43990016 2.26172805,2.26376666 Z M1.32137371,3.53469349 L3.15923881,3.53469349 C2.96811941,4.20318048 2.85508929,4.91535514 2.82716006,5.64356111 L0.725386049,5.64356111 C0.774748789,4.89815195 0.978507862,4.18278978 1.32137371,3.53469349 Z M1.32139716,8.46532994 C0.978484411,7.81723366 0.774725339,7.10187149 0.725362599,6.35646233 L2.82713661,6.35646233 C2.85506584,7.08469174 2.96809596,7.79686639 3.15921536,8.46532994 L1.32139716,8.46532994 Z M2.2617515,9.73625678 C2.0854761,9.56012328 1.92352879,9.37356005 1.77581577,9.17823116 L3.39941609,9.17823116 C3.55819762,9.58503744 3.74779275,9.96978894 3.96681792,10.3247747 C4.13852052,10.6030961 4.32300351,10.8542533 4.51278624,11.0726214 C3.67080563,10.8273235 2.89917572,10.373314 2.2617515,9.73625678 Z M5.64334541,11.1404029 C5.34620751,10.9461053 4.94722525,10.5557287 4.57389755,9.95061699 C4.42416781,9.70794417 4.28958692,9.44947441 4.17062389,9.1782546 L5.64332196,9.1782546 L5.64332196,11.1404029 L5.64334541,11.1404029 Z M5.64334541,8.46532994 L3.90345539,8.46532994 C3.69502972,7.80481174 3.57132975,7.09069176 3.54093824,6.35646233 L5.64334541,6.35646233 L5.64334541,8.46532994 Z M5.64334541,5.64356111 L3.54093824,5.64356111 C3.5713063,4.90933168 3.69500627,4.19518826 3.90345539,3.53469349 L5.64334541,3.53469349 L5.64334541,5.64356111 Z M5.64334541,2.82176884 L4.17064734,2.82176884 C4.28961037,2.55054903 4.42419126,2.29207927 4.573921,2.04940644 C4.94722525,1.4442947 5.34623096,1.05389474 5.64336886,0.859620545 L5.64336886,2.82176884 L5.64334541,2.82176884 Z M10.6786263,3.53469349 C11.021539,4.18281321 11.2252747,4.89815195 11.2746374,5.64356111 L9.17283994,5.64356111 C9.14491071,4.9153317 9.03188059,4.20315704 8.84076119,3.53469349 L10.6786263,3.53469349 Z M9.7382954,2.26376666 C9.9145239,2.43990016 10.0764712,2.62648682 10.2242077,2.82179227 L8.60063081,2.82179227 C8.44184929,2.414986 8.25225415,2.03023449 8.03322898,1.67524873 C7.86152638,1.39692733 7.67706684,1.1457701 7.48726066,0.92740206 C8.32924127,1.17269989 9.10087118,1.62670948 9.7382954,2.26376666 Z M6.35665459,0.859620545 C6.65379249,1.05391818 7.05277475,1.4442947 7.42610245,2.04940644 C7.57583219,2.29207927 7.71041308,2.55054903 7.82937611,2.82176884 L6.35667804,2.82176884 L6.35667804,0.859620545 L6.35665459,0.859620545 Z M6.35665459,3.53469349 L8.09654461,3.53469349 C8.30499373,4.1952117 8.4286937,4.90937855 8.45906176,5.64356111 L6.35665459,5.64356111 L6.35665459,3.53469349 Z M8.45903831,6.35646233 C8.42867025,7.09069176 8.30497028,7.80483518 8.09652116,8.46532994 L6.35663114,8.46532994 L6.35663114,6.35646233 L8.45903831,6.35646233 Z M6.35665459,11.1404029 L6.35665459,9.1782546 L7.82935266,9.1782546 C7.71038963,9.44947441 7.57580874,9.70794417 7.426079,9.95061699 C7.05277475,10.5557522 6.65379249,10.9461053 6.35665459,11.1404029 Z M9.7382954,9.73628022 C9.10087118,10.3733374 8.32926472,10.8273235 7.48726066,11.0726448 C7.67704339,10.8542768 7.86152638,10.6031195 8.03322898,10.3247981 C8.2522307,9.96981238 8.44184929,9.58506088 8.60063081,9.1782546 L10.2242077,9.1782546 C10.0764947,9.37356005 9.9145239,9.56014672 9.7382954,9.73628022 Z M10.6786263,8.46532994 L8.84076119,8.46532994 C9.03188059,7.79686639 9.14493416,7.08469174 9.17283994,6.35646233 L11.274614,6.35646233 C11.2252512,7.10187149 11.0214921,7.81723366 10.6786263,8.46532994 Z" id="Shape"></path>
            </g>
        </g>
    </g>
</svg>