<?xml version="1.0" encoding="UTF-8"?>
<svg width="141px" height="36px" viewBox="0 0 141 36" version="1.1" xmlns="http://www.w3.org/2000/svg" xmlns:xlink="http://www.w3.org/1999/xlink">
    <!-- Generator: Sketch 52.2 (67145) - http://www.bohemiancoding.com/sketch -->
    <title>Group 4 Copy</title>
    <desc>Created with Sketch.</desc>
    <g id="Page-1" stroke="none" stroke-width="1" fill="none" fill-rule="evenodd">
        <g id="Group-4-Copy">
            <g id="chevir-11" transform="translate(0.000000, 0.558140)">
                <path d="M26.412907,0.483662791 C25.9730952,0.481122346 25.5507046,0.655395387 25.2406395,0.967325581 C24.7481884,1.43467127 24.5947146,2.15718331 24.854672,2.78435333 C25.1146295,3.41152335 25.7342367,3.81359891 26.412907,3.79552326 L32.5365698,3.79552326 C33.3994146,3.79451181 34.1777476,4.31382125 34.5080809,5.1109299 C34.8384142,5.90803855 34.6555716,6.82567305 34.0449419,7.4352907 C33.6481696,7.84097405 33.1040224,8.06868784 32.5365698,8.06651163 L18.0840698,8.06651163 C17.1785797,8.06651163 16.4445349,8.8005564 16.4445349,9.70604651 C16.4445349,10.6115366 17.1785797,11.3455814 18.0840698,11.3455814 L24.3143023,11.3455814 C25.2586994,11.3490535 26.1081295,11.9207489 26.4668988,12.7943521 C26.8256681,13.6679553 26.6232103,14.6716374 25.9538372,15.3378488 C25.5220517,15.7783582 24.9311388,16.0265416 24.3143023,16.0264535 L2.1805814,16.0264535 C2.09608493,16.0179613 2.01094995,16.0179613 1.92645349,16.0264535 C1.5791579,16.0772543 1.25733195,16.2381673 1.00831395,16.4855233 C0.696383759,16.7955884 0.522110718,17.217979 0.524651163,17.6577907 C0.515988894,18.478022 1.11483874,19.1784312 1.92645349,19.2973256 C2.01094995,19.3058178 2.09608493,19.3058178 2.1805814,19.2973256 L27.5933721,19.2973256 C28.3878873,19.2480755 29.144058,19.643985 29.5562187,20.3250162 C29.9683793,21.0060474 29.9683793,21.8595921 29.5562187,22.5406233 C29.144058,23.2216545 28.3878873,23.617564 27.5933721,23.568314 L19.1087791,23.568314 C18.6689673,23.5657735 18.2465767,23.7400465 17.9365116,24.0519767 C17.6245814,24.3620419 17.4503084,24.7844324 17.4528488,25.2242442 C17.4528488,26.1297343 18.1868936,26.8637791 19.0923837,26.8637791 L36.66,26.8637791 C37.9516483,26.8682954 38.9963451,27.9166577 38.9963372,29.208314 C38.9874021,30.4949182 37.9466042,31.5357161 36.66,31.5446512 L7.42709302,31.5446512 C6.52160291,31.5446512 5.78755814,32.2786959 5.78755814,33.184186 C5.78755814,34.0896762 6.52160291,34.8237209 7.42709302,34.8237209 L56.7443023,34.8237209 C66.2519485,34.8237209 73.9594186,27.1162508 73.9594186,17.6086047 C73.9594186,8.10095846 66.2519485,0.483662791 56.7443023,0.483662791 L26.412907,0.483662791 Z M57.8919767,31.2741279 C57.4400884,31.2745241 56.9885248,31.2498934 56.5393605,31.2003488 L55.8999419,31.1265698 C49.4003026,29.9635577 44.6684423,24.3098479 44.6684423,17.7069767 C44.6684423,11.1041055 49.4003026,5.45039579 55.8999419,4.28738372 L56.5393605,4.21360465 C56.9885248,4.16406009 57.4400884,4.13942935 57.8919767,4.13982558 C62.7390531,4.13982538 67.2179365,6.72570974 69.6414748,10.923401 C72.065013,15.1210923 72.065013,20.2928612 69.6414748,24.4905525 C67.2179365,28.6882438 62.7390531,31.2741281 57.8919767,31.2741279 Z" id="Shape" fill="#0051E6" fill-rule="nonzero"></path>
                <rect id="Rectangle" fill="#0051E6" x="7.32872093" y="8.05011628" width="5.58261628" height="3.31186047" rx="1.65593023"></rect>
                <rect id="Rectangle" fill="#0051E6" x="17.3790698" y="0.245930233" width="3.64796512" height="3.31186047" rx="1.65593023"></rect>
                <rect id="Rectangle" fill="#0051E6" x="10.1897093" y="23.8060465" width="3.64796512" height="3.31186047" rx="1.65593023"></rect>
                <path d="M69.0490116,18.3627907 C69.0490116,18.1414535 69.0490116,17.928314 69.0490116,17.7069767 C69.0490116,17.4856395 69.0490116,17.3954651 69.0490116,17.2397093 C69.0490116,17.0839535 69.0490116,16.8462209 69.0490116,16.6494767 C69.0490116,16.4527326 68.9916279,16.1412209 68.9588372,15.8952907 C68.9260465,15.6493605 68.8686628,15.3788372 68.8112791,15.132907 C68.8112791,15.0427326 68.8112791,14.9443605 68.762093,14.8623837 L65.0731395,15.0837209 L63.851686,12.9769186 L65.892907,9.91918605 C65.2159495,9.23764735 64.4525191,8.64784911 63.6221512,8.16488372 C63.2430908,7.94051726 62.8486155,7.74327962 62.441686,7.57465116 L62.1875581,7.4680814 C62.0405032,7.40491167 61.8899686,7.3501718 61.736686,7.30412791 L61.6055233,7.25494186 C61.4362953,7.19604692 61.2638682,7.14678202 61.0890698,7.10738372 L60.957907,7.10738372 L59.3183721,10.3864535 L56.8590698,10.3864535 L55.2195349,7.14837209 L55.2195349,7.09918605 C53.3545444,7.59353533 51.656103,8.57863134 50.3009302,9.95197674 L50.3665116,10.0585465 L52.3339535,13.0097093 L51.1125,15.1165116 L47.6284884,14.9033721 L47.4317442,14.9033721 C46.9397424,16.7678561 46.9397424,18.7280741 47.4317442,20.5925581 L47.6694767,20.5925581 L51.1125,20.395814 L52.3339535,22.4862209 L50.4238953,25.355407 L50.3009302,25.5521512 C51.6587828,26.9202893 53.3564933,27.9021318 55.2195349,28.3967442 L55.3097093,28.2163953 L56.8590698,25.1094767 L59.3183721,25.1094767 L60.8759302,28.2655814 L60.9497093,28.3967442 C62.8130556,27.9028693 64.5109486,26.9209212 65.868314,25.5521512 L65.8109302,25.4701744 L63.827093,22.4862209 L65.0485465,20.395814 L68.688314,20.6089535 L68.7456977,20.6089535 C68.9204554,19.8995583 69.024798,19.1746519 69.0572093,18.4447674 L69.0490116,18.3627907 Z M58.0641279,20.9286628 C56.7562758,20.931978 55.5755121,20.1462598 55.0734861,18.9385935 C54.5714602,17.7309271 54.8472739,16.3397108 55.7720679,15.4149168 C56.696862,14.4901227 58.0880783,14.214309 59.2957446,14.716335 C60.503411,15.2183609 61.2891292,16.3991247 61.285814,17.7069767 C61.285814,18.561421 60.9463873,19.3808695 60.342204,19.9850528 C59.7380206,20.5892361 58.9185722,20.9286628 58.0641279,20.9286628 Z" id="Shape" fill="#0051E6" fill-rule="nonzero"></path>
                <path d="M68.7293023,14.8623837 C68.1100493,12.5211731 66.7283969,10.4530212 64.8026163,8.98465116 C64.4266405,8.68700195 64.0323793,8.41320944 63.6221512,8.16488372 C63.2439693,7.93890939 62.8493746,7.74161204 62.441686,7.57465116 L62.1875581,7.4680814 C62.0405032,7.40491167 61.8899686,7.3501718 61.736686,7.30412791 L61.6055233,7.25494186 C61.4362953,7.19604692 61.2638682,7.14678202 61.0890698,7.10738372 L60.957907,7.10738372 C60.055686,6.87332643 59.1273773,6.75487754 58.1952907,6.75488372 C57.2005299,6.75328252 56.2102712,6.88844318 55.2523256,7.15656977 C51.5173844,8.20965864 48.6177197,11.15921 47.6284884,14.9115698 C47.3871904,15.8097607 47.2659035,16.7359517 47.2677907,17.6659884 C47.2673259,18.6498957 47.4024935,19.6291708 47.6694767,20.5761628 C49.1108374,25.8556189 54.2401954,29.2505829 59.663128,28.5143913 C65.0860607,27.7781997 69.1246889,23.1386333 69.1063953,17.6659884 C69.0987566,16.7193383 68.9720644,15.777409 68.7293023,14.8623837 Z" id="Path" stroke="#0051E6" stroke-width="0.5"></path>
                <circle id="Oval" stroke="#0051E6" stroke-width="0.5" cx="58.0641279" cy="17.7069767" r="1.83627907"></circle>
            </g>
            <path d="M97.2981977,4.23233721 L97.2981977,12.4595233 C97.2981977,13.2268256 96.5948372,13.8875581 95.8701628,13.8875581 C95.1668023,13.8875581 94.6126395,13.2481395 94.6126395,12.7579186 C94.1224186,13.2268256 92.9501512,13.8875581 91.6073721,13.8875581 C88.6234186,13.8875581 86.2149419,11.4151395 86.2149419,8.32461628 C86.2149419,5.23409302 88.6447326,2.80430233 91.6073721,2.80430233 C92.9501512,2.80430233 94.1224186,3.46503488 94.6126395,3.93394186 C94.6126395,3.44372093 95.1668023,2.80430233 95.8701628,2.80430233 C96.5948372,2.80430233 97.2981977,3.46503488 97.2981977,4.23233721 Z M94.7618372,8.32461628 C94.7618372,6.57687209 93.5256279,5.27672093 91.8205116,5.27672093 C90.1367093,5.27672093 88.8152442,6.68344186 88.8152442,8.32461628 C88.8152442,9.9657907 90.0940814,11.4151395 91.8205116,11.4151395 C93.5469419,11.4151395 94.7618372,10.0723605 94.7618372,8.32461628 Z M100.815,2.80430233 C101.305221,2.80430233 101.880698,3.10269767 102.072523,3.67817442 L104.58757,11.223314 L104.758081,11.223314 L107.251814,3.67817442 C107.44364,3.10269767 107.997802,2.80430233 108.530651,2.80430233 C109.404523,2.80430233 109.916058,3.44372093 109.916058,4.16839535 C109.916058,4.29627907 109.87343,4.5094186 109.809488,4.65861628 L106.761593,12.6087209 C106.548453,13.1628837 106.143488,13.6744186 105.205674,13.6744186 L104.118663,13.6744186 C103.308733,13.6744186 102.797198,13.1841977 102.584058,12.6087209 L99.5361628,4.65861628 C99.4722209,4.5094186 99.429593,4.29627907 99.429593,4.16839535 C99.429593,3.44372093 99.9411279,2.80430233 100.815,2.80430233 Z M117.887477,12.4168953 C117.887477,13.1202558 117.333314,13.6744186 116.629953,13.6744186 L115.606884,13.6744186 C113.944395,13.6744186 112.665558,12.4808372 112.665558,10.7970349 L112.665558,5.53248837 L111.91957,5.53248837 C111.216209,5.53248837 110.662047,4.97832558 110.662047,4.27496512 C110.662047,3.61423256 111.216209,3.01744186 111.91957,3.01744186 L112.665558,3.01744186 L112.665558,1.52546512 C112.665558,0.779476744 113.304977,0.182686047 114.029651,0.182686047 C114.733012,0.182686047 115.37243,0.779476744 115.37243,1.52546512 L115.37243,3.01744186 L116.885721,3.01744186 C117.567767,3.01744186 118.143244,3.5502907 118.143244,4.27496512 C118.143244,4.97832558 117.567767,5.53248837 116.885721,5.53248837 L115.37243,5.53248837 L115.37243,10.754407 C115.37243,10.9462326 115.564256,11.1593721 115.777395,11.1593721 L116.629953,11.1593721 C117.333314,11.1593721 117.887477,11.7135349 117.887477,12.4168953 Z M130.675849,8.32461628 C130.675849,11.3938256 128.182116,13.8875581 125.070279,13.8875581 C121.915814,13.8875581 119.464709,11.4151395 119.464709,8.32461628 C119.464709,5.23409302 121.937128,2.80430233 125.070279,2.80430233 C128.160802,2.80430233 130.675849,5.25540698 130.675849,8.32461628 Z M128.054233,8.32461628 C128.054233,6.68344186 126.754081,5.29803488 125.070279,5.29803488 C123.386477,5.29803488 122.065012,6.68344186 122.065012,8.32461628 C122.065012,9.9657907 123.343849,11.4151395 125.070279,11.4151395 C126.775395,11.4151395 128.054233,9.9657907 128.054233,8.32461628 Z M92.8009535,32.091314 C92.8009535,32.7946744 92.2467907,33.3488372 91.5434302,33.3488372 L90.5203605,33.3488372 C88.8578721,33.3488372 87.5790349,32.1552558 87.5790349,30.4714535 L87.5790349,25.206907 L86.8330465,25.206907 C86.129686,25.206907 85.5755233,24.6527442 85.5755233,23.9493837 C85.5755233,23.2886512 86.129686,22.6918605 86.8330465,22.6918605 L87.5790349,22.6918605 L87.5790349,21.1998837 C87.5790349,20.4538953 88.2184535,19.8571047 88.9431279,19.8571047 C89.6464884,19.8571047 90.285907,20.4538953 90.285907,21.1998837 L90.285907,22.6918605 L91.7991977,22.6918605 C92.4812442,22.6918605 93.0567209,23.2247093 93.0567209,23.9493837 C93.0567209,24.6527442 92.4812442,25.206907 91.7991977,25.206907 L90.285907,25.206907 L90.285907,30.4288256 C90.285907,30.6206512 90.4777326,30.8337907 90.6908721,30.8337907 L91.5434302,30.8337907 C92.2467907,30.8337907 92.8009535,31.3879535 92.8009535,32.091314 Z M96.4669535,27.018593 L102.839826,27.018593 C102.626686,25.8676395 101.326535,24.9298256 100.069012,24.9298256 C99.0672558,24.9298256 98.4491512,25.1642791 98.1294419,25.3774186 C97.8310465,25.5692442 97.5113372,25.6971279 97.149,25.6971279 C96.4456395,25.6971279 95.8914767,25.185593 95.8914767,24.5035465 C95.8914767,23.9280698 96.211186,23.5657326 96.6161512,23.2886512 C96.9998023,23.0541977 98.044186,22.5000349 100.069012,22.5000349 C103.244791,22.5000349 105.674581,24.9937674 105.674581,28.0629767 C105.674581,31.132186 103.138221,33.5619767 100.154267,33.5619767 C97.127686,33.5619767 94.868407,31.0469302 94.868407,28.5531977 C94.868407,27.6366977 95.5504535,27.018593 96.4669535,27.018593 Z M100.154267,31.174814 C101.539674,31.174814 102.690628,30.0664884 102.839826,29.0434186 L97.4473953,29.0434186 C97.5326512,30.0238605 98.6622907,31.174814 100.154267,31.174814 Z M111.067012,18.7274651 L111.067012,26.4218023 L114.903523,22.926314 C115.095349,22.7558023 115.436372,22.4787209 115.947907,22.4787209 C116.736523,22.4787209 117.290686,23.0968256 117.290686,23.8641279 C117.290686,24.269093 117.120174,24.5674884 116.949663,24.738 L113.43286,27.7006395 L117.461198,31.2813837 C117.716965,31.5158372 117.844849,31.8994884 117.844849,32.2191977 C117.844849,32.965186 117.248058,33.5619767 116.50207,33.5619767 C116.18236,33.5619767 115.820023,33.434093 115.564256,33.1996395 L111.067012,29.0647326 L111.067012,32.1765698 C111.067012,32.9438721 110.470221,33.5619767 109.681605,33.5619767 C108.95693,33.5619767 108.338826,32.9438721 108.338826,32.1765698 L108.338826,18.7274651 C108.338826,18.0027907 108.95693,17.3633721 109.702919,17.3633721 C110.448907,17.3633721 111.067012,18.0027907 111.067012,18.7274651 Z M120.935372,27.018593 L127.308244,27.018593 C127.095105,25.8676395 125.794953,24.9298256 124.53743,24.9298256 C123.535674,24.9298256 122.91757,25.1642791 122.59786,25.3774186 C122.299465,25.5692442 121.979756,25.6971279 121.617419,25.6971279 C120.914058,25.6971279 120.359895,25.185593 120.359895,24.5035465 C120.359895,23.9280698 120.679605,23.5657326 121.08457,23.2886512 C121.468221,23.0541977 122.512605,22.5000349 124.53743,22.5000349 C127.713209,22.5000349 130.143,24.9937674 130.143,28.0629767 C130.143,31.132186 127.60664,33.5619767 124.622686,33.5619767 C121.596105,33.5619767 119.336826,31.0469302 119.336826,28.5531977 C119.336826,27.6366977 120.018872,27.018593 120.935372,27.018593 Z M124.622686,31.174814 C126.008093,31.174814 127.159047,30.0664884 127.308244,29.0434186 L121.915814,29.0434186 C122.00107,30.0238605 123.130709,31.174814 124.622686,31.174814 Z M135.322291,27.039907 L135.322291,32.1978837 C135.322291,32.9225581 134.704186,33.5619767 133.958198,33.5619767 C133.212209,33.5619767 132.594105,32.9225581 132.594105,32.1978837 L132.594105,27.3169884 C132.594105,24.6740581 134.768128,22.4787209 137.453686,22.4787209 C139.308,22.4787209 140.778663,23.4378488 140.778663,24.4182907 C140.778663,25.1216512 140.2245,25.633186 139.542453,25.633186 C138.668581,25.633186 138.562012,24.9724535 137.432372,24.9724535 C136.217477,24.9724535 135.322291,25.8889535 135.322291,27.039907 Z" id="avto-təkər" fill="#000E2E"></path>
        </g>
    </g>
</svg>