<?xml version="1.0" encoding="UTF-8"?>
<svg width="172px" height="43px" viewBox="0 0 172 43" version="1.1" xmlns="http://www.w3.org/2000/svg" xmlns:xlink="http://www.w3.org/1999/xlink">
    <!-- Generator: sketchtool 52.2 (67145) - http://www.bohemiancoding.com/sketch -->
    <title>2377F324-7BF5-461A-969D-E911958412A8</title>
    <desc>Created with sketchtool.</desc>
    <g id="Page-1" stroke="none" stroke-width="1" fill="none" fill-rule="evenodd">
        <g id="Desktop-HD-Copy-7" transform="translate(-86.000000, -78.000000)">
            <rect id="Rectangle" fill="#1345D5" x="0" y="58" width="1440" height="81"></rect>
            <g id="Group-22" transform="translate(86.000000, 71.000000)">
                <g id="chevir-11" transform="translate(0.000000, 7.000000)">
                    <path d="M69.22,0.59 L32.22,0.59 C31.6834921,0.586901018 31.1682355,0.799489408 30.79,1.18 C30.1892795,1.75009545 30.0020632,2.63145766 30.3191744,3.39651612 C30.6362856,4.16157458 31.3921185,4.65204973 32.22,4.63 L39.69,4.63 C40.7425484,4.62876617 41.6920042,5.26225003 42.094964,6.23460952 C42.4979238,7.20696902 42.2748816,8.32635294 41.53,9.07 C41.0459941,9.56487615 40.3822117,9.84265467 39.69,9.84 L22.06,9.84 C20.9554305,9.84 20.06,10.7354305 20.06,11.84 C20.06,12.9445695 20.9554305,13.84 22.06,13.84 L29.66,13.84 C30.8120305,13.8442355 31.8482147,14.5416227 32.2858624,15.6072947 C32.72351,16.6729667 32.4765402,17.8973166 31.66,18.71 C31.1332829,19.247359 30.412453,19.5501075 29.66,19.55 L2.66,19.55 C2.5569263,19.5396407 2.4530737,19.5396407 2.35,19.55 C1.92634865,19.6119698 1.53376664,19.8082608 1.23,20.11 C0.849489408,20.4882355 0.636901018,21.0034921 0.64,21.54 C0.629433261,22.5405658 1.35994513,23.3949657 2.35,23.54 C2.4530737,23.5503593 2.5569263,23.5503593 2.66,23.54 L33.66,23.54 C34.6291958,23.4799219 35.5516168,23.9628753 36.0543944,24.7936368 C36.5571719,25.6243983 36.5571719,26.6656017 36.0543944,27.4963632 C35.5516168,28.3271247 34.6291958,28.8100781 33.66,28.75 L23.31,28.75 C22.7734921,28.746901 22.2582355,28.9594894 21.88,29.34 C21.4994894,29.7182355 21.286901,30.2334921 21.29,30.77 C21.29,31.8745695 22.1854305,32.77 23.29,32.77 L44.72,32.77 C46.2956277,32.7755092 47.5700096,34.0543626 47.57,35.63 C47.5591005,37.1994746 46.2894746,38.4691005 44.72,38.48 L9.06,38.48 C7.9554305,38.48 7.06,39.3754305 7.06,40.48 C7.06,41.5845695 7.9554305,42.48 9.06,42.48 L69.22,42.48 C80.8179797,42.48 90.22,33.0779797 90.22,21.48 C90.22,9.88202025 80.8179797,0.48 69.22,0.48 L69.22,0.59 Z M70.62,38.15 C70.0687603,38.1504833 69.5179168,38.1204373 68.97,38.06 L68.19,37.97 C60.261362,36.5512902 54.4891637,29.6545663 54.4891637,21.6 C54.4891637,13.5454337 60.261362,6.64870975 68.19,5.23 L68.97,5.14 C69.5179168,5.07956266 70.0687603,5.04951665 70.62,5.05 C76.5327457,5.04999975 81.9963481,8.20441188 84.952721,13.3249998 C87.9090939,18.4455877 87.9090939,24.7544123 84.952721,29.8750002 C81.9963481,34.9955881 76.5327457,38.1500002 70.62,38.15 Z" id="Shape" fill="#FFFFFF" fill-rule="nonzero"></path>
                    <rect id="Rectangle" fill="#FFFFFF" x="8.94" y="9.82" width="6.81" height="4.04" rx="2.02"></rect>
                    <rect id="Rectangle" fill="#FFFFFF" x="21.2" y="0.3" width="4.45" height="4.04" rx="2.02"></rect>
                    <rect id="Rectangle" fill="#FFFFFF" x="12.43" y="29.04" width="4.45" height="4.04" rx="2.02"></rect>
                    <path d="M84.23,22.4 C84.23,22.13 84.23,21.87 84.23,21.6 C84.23,21.33 84.23,21.22 84.23,21.03 C84.23,20.84 84.23,20.55 84.23,20.31 C84.23,20.07 84.16,19.69 84.12,19.39 C84.08,19.09 84.01,18.76 83.94,18.46 C83.94,18.35 83.94,18.23 83.88,18.13 L79.38,18.4 L77.89,15.83 L80.38,12.1 C79.5542079,11.2686195 78.6229311,10.5491493 77.61,9.96 C77.1476001,9.68630474 76.6663962,9.44570279 76.17,9.24 L75.86,9.11 C75.6806138,9.0329419 75.4969829,8.96616702 75.31,8.91 L75.15,8.85 C74.9435659,8.77815653 74.7332292,8.71806033 74.52,8.67 L74.36,8.67 L72.36,12.67 L69.36,12.67 L67.36,8.72 L67.36,8.66 C65.0849761,9.26303601 63.0131185,10.4647134 61.36,12.14 L61.44,12.27 L63.84,15.87 L62.35,18.44 L58.1,18.18 L57.86,18.18 C57.2598276,20.4544061 57.2598276,22.8455939 57.86,25.12 L58.15,25.12 L62.35,24.88 L63.84,27.43 L61.51,30.93 L61.36,31.17 C63.0163875,32.8389344 65.0873535,34.0366431 67.36,34.64 L67.47,34.42 L69.36,30.63 L72.36,30.63 L74.26,34.48 L74.35,34.64 C76.6230182,34.0375427 78.6942069,32.8397053 80.35,31.17 L80.28,31.07 L77.86,27.43 L79.35,24.88 L83.79,25.14 L83.86,25.14 C84.0731796,24.2746384 84.2004628,23.3903555 84.24,22.5 L84.23,22.4 Z M70.83,25.53 C69.234606,25.5340441 67.7942417,24.5755794 67.1818412,23.1023977 C66.5694408,21.6292161 66.9058944,19.9321295 68.0340119,18.8040119 C69.1621295,17.6758944 70.8592161,17.3394408 72.3323977,17.9518412 C73.8055794,18.5642417 74.7640441,20.004606 74.76,21.6 C74.76,22.6423008 74.3459476,23.6419117 73.6089297,24.3789297 C72.8719117,25.1159476 71.8723008,25.53 70.83,25.53 Z" id="Shape" fill="#FFFFFF" fill-rule="nonzero"></path>
                    <path d="M83.84,18.13 C83.0845992,15.2740551 81.3991793,12.7512031 79.05,10.96 C78.5913629,10.5969102 78.1104202,10.2629222 77.61,9.96 C77.1486718,9.68434337 76.6673222,9.44366859 76.17,9.24 L75.86,9.11 C75.6806138,9.0329419 75.4969829,8.96616702 75.31,8.91 L75.15,8.85 C74.9435659,8.77815653 74.7332292,8.71806033 74.52,8.67 L74.36,8.67 C73.2594184,8.3844833 72.1270134,8.23999246 70.99,8.24 C69.7765329,8.23804676 68.5685577,8.4029236 67.4,8.73 C62.8439015,10.014619 59.3067219,13.6126534 58.1,18.19 C57.8056507,19.2856656 57.6576979,20.4154872 57.66,21.55 C57.659433,22.7502274 57.8243183,23.9448042 58.15,25.1 C59.9082556,31.5401875 66.1653447,35.6815622 72.7805534,34.7835128 C79.395762,33.8854634 84.3223155,28.2258505 84.3,21.55 C84.2906819,20.3952212 84.1361353,19.246201 83.84,18.13 Z" id="Path" stroke="#FFFFFF" stroke-width="0.5"></path>
                    <circle id="Oval" stroke="#FFFFFF" stroke-width="0.5" cx="70.83" cy="21.6" r="2.24"></circle>
                </g>
                <text id="avto-təkər" font-family="UltimaPro-Bold, Ultima Pro" font-size="26" font-weight="bold" line-spacing="24" fill="#FFFFFF">
                    <tspan x="104" y="20">avto </tspan>
                    <tspan x="104" y="44">təkər</tspan>
                </text>
            </g>
        </g>
    </g>
</svg>