<?xml version="1.0" encoding="UTF-8"?>
<svg width="140px" height="36px" viewBox="0 0 140 36" version="1.1" xmlns="http://www.w3.org/2000/svg" xmlns:xlink="http://www.w3.org/1999/xlink">
    <!-- Generator: Sketch 52.2 (67145) - http://www.bohemiancoding.com/sketch -->
    <title>Group 22 Copy</title>
    <desc>Created with Sketch.</desc>
    <g id="Page-1" stroke="none" stroke-width="1" fill="none" fill-rule="evenodd">
        <g id="Group-22-Copy" transform="translate(0.000000, -5.000000)">
            <g id="chevir-11" transform="translate(0.000000, 5.697674)">
                <path d="M26.2255814,0.480232558 C25.7888889,0.477710131 25.369494,0.650747192 25.0616279,0.960465116 C24.5726693,1.4244963 24.420284,2.14188414 24.6783978,2.76460614 C24.9365115,3.38732815 25.5517244,3.78655211 26.2255814,3.76860465 L32.305814,3.76860465 C33.1625394,3.76760037 33.9353522,4.28322677 34.2633428,5.07468217 C34.5913333,5.86613757 34.4097874,6.77726402 33.8034884,7.38255814 C33.4095301,7.78536431 32.8692421,8.0114631 32.305814,8.00930233 L17.955814,8.00930233 C17.0567458,8.00930233 16.327907,8.7381411 16.327907,9.6372093 C16.327907,10.5362775 17.0567458,11.2651163 17.955814,11.2651163 L24.1418605,11.2651163 C25.0795597,11.2685638 25.9229655,11.8362046 26.2791903,12.703612 C26.6354151,13.5710194 26.4343932,14.5675833 25.7697674,15.2290698 C25.3410442,15.666455 24.7543222,15.9128782 24.1418605,15.9127907 L2.16511628,15.9127907 C2.08121908,15.9043587 1.9966879,15.9043587 1.9127907,15.9127907 C1.5679582,15.9632312 1.24841471,16.123003 1.00116279,16.3686047 C0.691444867,16.6764707 0.518407805,17.0958656 0.520930233,17.5325581 C0.512329398,18.3469722 1.10693208,19.0424139 1.9127907,19.1604651 C1.9966879,19.1688971 2.08121908,19.1688971 2.16511628,19.1604651 L27.3976744,19.1604651 C28.1865547,19.1115644 28.9373625,19.504666 29.3466001,20.1808672 C29.7558376,20.8570684 29.7558376,21.7045595 29.3466001,22.3807607 C28.9373625,23.0569619 28.1865547,23.4500635 27.3976744,23.4011628 L18.9732558,23.4011628 C18.5365633,23.3986404 18.1171684,23.5716774 17.8093023,23.8813953 C17.4995844,24.1892614 17.3265473,24.6086563 17.3290698,25.0453488 C17.3290698,25.944417 18.0579085,26.6732558 18.9569767,26.6732558 L36.4,26.6732558 C37.6824877,26.6777401 38.7197753,27.7186673 38.7197674,29.0011628 C38.7108957,30.2786421 37.6774794,31.3120585 36.4,31.3209302 L7.3744186,31.3209302 C6.47535041,31.3209302 5.74651163,32.049769 5.74651163,32.9488372 C5.74651163,33.8479054 6.47535041,34.5767442 7.3744186,34.5767442 L56.3418605,34.5767442 C65.7820765,34.5767442 73.4348837,26.923937 73.4348837,17.4837209 C73.4348837,8.04350486 65.7820765,0.480232558 56.3418605,0.480232558 L26.2255814,0.480232558 Z M56.1383721,30.9790698 L55.5034884,30.905814 C49.0499458,29.7510502 44.3516449,24.1374377 44.3516449,17.5813953 C44.3516449,11.025353 49.0499458,5.4117405 55.5034884,4.25697674 L56.1383721,4.18372093 C56.5843509,4.13452775 57.0327118,4.11007169 57.4813953,4.11046512 C62.2940953,4.11046491 66.7412136,6.67800967 69.1475636,10.8459301 C71.5539137,15.0138505 71.5539137,20.1489402 69.1475636,24.3168606 C66.7412136,28.484781 62.2940953,31.0523258 57.4813953,31.0523256 C57.0327118,31.052719 56.5843509,31.028263 56.1383721,30.9790698 Z" id="Shape" fill="#FFFFFF" fill-rule="nonzero"></path>
                <rect id="Rectangle" fill="#FFFFFF" x="7.27674419" y="7.99302326" width="5.54302326" height="3.28837209" rx="1.64418605"></rect>
                <rect id="Rectangle" fill="#FFFFFF" x="17.255814" y="0.244186047" width="3.62209302" height="3.28837209" rx="1.64418605"></rect>
                <rect id="Rectangle" fill="#FFFFFF" x="10.1174419" y="23.6372093" width="3.62209302" height="3.28837209" rx="1.64418605"></rect>
                <path d="M68.5593023,18.2325581 C68.5593023,18.0127907 68.5593023,17.8011628 68.5593023,17.5813953 C68.5593023,17.3616279 68.5593023,17.272093 68.5593023,17.1174419 C68.5593023,16.9627907 68.5593023,16.7267442 68.5593023,16.5313953 C68.5593023,16.3360465 68.5023256,16.0267442 68.4697674,15.7825581 C68.4372093,15.5383721 68.3802326,15.2697674 68.3232558,15.0255814 C68.3232558,14.9360465 68.3232558,14.8383721 68.2744186,14.7569767 L64.6116279,14.9767442 L63.3988372,12.8848837 L65.4255814,9.84883721 C64.753425,9.17213212 63.995409,8.58651685 63.1709302,8.10697674 C62.7945582,7.88420154 62.4028806,7.68836274 61.9988372,7.52093023 L61.7465116,7.41511628 C61.6004996,7.35239457 61.4510326,7.29804293 61.2988372,7.25232558 L61.1686047,7.20348837 C61.0005769,7.14501113 60.8293726,7.09609562 60.655814,7.05697674 L60.5255814,7.05697674 L58.8976744,10.3127907 L56.455814,10.3127907 L54.827907,7.09767442 L54.827907,7.04883721 C52.9761434,7.53968047 51.2897476,8.51778998 49.944186,9.88139535 L50.0093023,9.9872093 L51.9627907,12.9174419 L50.75,15.0093023 L47.2906977,14.7976744 L47.0953488,14.7976744 C46.6068364,16.6489352 46.6068364,18.5952509 47.0953488,20.4465116 L47.3313953,20.4465116 L50.75,20.2511628 L51.9627907,22.3267442 L50.0662791,25.1755814 L49.944186,25.3709302 C51.2924084,26.7293652 52.9780784,27.7042444 54.827907,28.1953488 L54.9174419,28.0162791 L56.455814,24.9313953 L58.8976744,24.9313953 L60.444186,28.0651163 L60.5174419,28.1953488 C62.367573,27.7049766 64.0534242,26.7299927 65.4011628,25.3709302 L65.344186,25.2895349 L63.3744186,22.3267442 L64.5872093,20.2511628 L68.2011628,20.4627907 L68.2581395,20.4627907 C68.4316579,19.7584266 68.5352604,19.0386615 68.5674419,18.3139535 L68.5593023,18.2325581 Z M57.6523256,20.7802326 C56.3537491,20.7835243 55.1813595,20.0033785 54.682894,18.8042772 C54.1844285,17.6051759 54.4582861,16.2238263 55.3765213,15.3055911 C56.2947566,14.3873559 57.6761061,14.1134983 58.8752075,14.6119638 C60.0743088,15.1104293 60.8544545,16.2828188 60.8511628,17.5813953 C60.8511628,18.4297797 60.5141434,19.2434165 59.9142451,19.8433148 C59.3143467,20.4432132 58.50071,20.7802326 57.6523256,20.7802326 Z" id="Shape" fill="#FFFFFF" fill-rule="nonzero"></path>
                <path d="M68.2418605,14.7569767 C67.6269993,12.4323704 66.2551459,10.3788863 64.3430233,8.92093023 C63.969714,8.625392 63.578249,8.35354129 63.1709302,8.10697674 C62.7954305,7.88260507 62.4036344,7.68670699 61.9988372,7.52093023 L61.7465116,7.41511628 C61.6004996,7.35239457 61.4510326,7.29804293 61.2988372,7.25232558 L61.1686047,7.20348837 C61.0005769,7.14501113 60.8293726,7.09609562 60.655814,7.05697674 L60.5255814,7.05697674 C59.6297592,6.82457943 58.7080342,6.70697061 57.7825581,6.70697674 C56.7948524,6.7053869 55.8116168,6.83958898 54.8604651,7.10581395 C51.1520128,8.15143411 48.2729131,11.0800667 47.2906977,14.805814 C47.051111,15.6976348 46.9306843,16.617257 46.9325581,17.5406977 C46.9320967,18.5176269 47.0663056,19.4899569 47.3313953,20.4302326 C48.7625336,25.6722457 53.8555131,29.043132 59.2399853,28.3121616 C64.6244575,27.5811912 68.6344429,22.9745295 68.6162791,17.5406977 C68.6086945,16.6007615 68.4829008,15.6655125 68.2418605,14.7569767 Z" id="Path" stroke="#FFFFFF" stroke-width="0.5"></path>
                <circle id="Oval" stroke="#FFFFFF" stroke-width="0.5" cx="57.6523256" cy="17.5813953" r="1.82325581"></circle>
            </g>
            <text id="avto-təkər" font-family="UltimaPro-Bold, Ultima Pro" font-size="21.1627907" font-weight="bold" line-spacing="19.5348837" fill="#FFFFFF">
                <tspan x="84.6511628" y="16">avto </tspan>
                <tspan x="84.6511628" y="35.5348837">təkər</tspan>
            </text>
        </g>
    </g>
</svg>