<?xml version="1.0" encoding="UTF-8"?>
<svg width="11px" height="15px" viewBox="0 0 11 15" version="1.1" xmlns="http://www.w3.org/2000/svg" xmlns:xlink="http://www.w3.org/1999/xlink">
    <!-- Generator: sketchtool 52.2 (67145) - http://www.bohemiancoding.com/sketch -->
    <title>057D2A64-A1BE-42C1-A421-493D0B930FC2</title>
    <desc>Created with sketchtool.</desc>
    <g id="Page-1" stroke="none" stroke-width="1" fill="none" fill-rule="evenodd">
        <g id="Desktop-HD" transform="translate(-85.000000, -4431.000000)">
            <rect id="Rectangle" fill="#F7F7F7" x="0" y="4249" width="1440" height="272"></rect>
            <g id="Group-9" transform="translate(85.000000, 4374.000000)" fill="#1345D5" fill-rule="nonzero">
                <g id="maps-and-flags" transform="translate(0.000000, 57.000000)">
                    <path d="M5.5,0 C2.46728362,0 0,2.43697563 0,5.43240896 C0,9.14983537 4.9219612,14.6072346 5.13151806,14.8377427 C5.32835024,15.0542762 5.67200569,15.0538953 5.86848194,14.8377427 C6.0780388,14.6072346 11,9.14983537 11,5.43240896 C10.9999407,2.43697563 8.53268672,0 5.5,0 Z M5.5,8.16560565 C3.97416504,8.16560565 2.73284096,6.93950064 2.73284096,5.43240896 C2.73284096,3.92531728 3.9741947,2.69924157 5.5,2.69924157 C7.0258053,2.69924157 8.26712938,3.92534658 8.26712938,5.43243826 C8.26712938,6.93952994 7.0258053,8.16560565 5.5,8.16560565 Z" id="Shape"></path>
                </g>
            </g>
        </g>
    </g>
</svg>